<svg xmlns="http://www.w3.org/2000/svg" viewBox="0 0 64 64" fill="none">
  <defs>
    <linearGradient id="shieldGradient" x1="12" y1="8" x2="52" y2="56" gradientUnits="userSpaceOnUse">
      <stop offset="0" stop-color="#00E0B8"/>
      <stop offset="1" stop-color="#2E7FE8"/>
    </linearGradient>
  </defs>
  <path fill="url(#shieldGradient)" d="M31.9 6c-8.4 0-15.6 4.4-21.8 5.8-.6.1-1.1.7-1.1 1.3C9.2 41.4 19.3 52 31.9 58c.4.2.9.2 1.3 0C45.8 52 55.9 41.4 56.9 13.1c0-.6-.4-1.2-1.1-1.3C47 10.4 40.3 6 31.9 6Z"/>
  <path fill="#031A2E" d="M32 16c-9 0-16 6.8-16 16s7 16 16 16 16-6.8 16-16-7-16-16-16Zm0 4c4.1 0 7.4 1.9 9.9 5.1l-4.6 4.6c-.9-1.9-2.8-3.2-5.3-3.2-3.6 0-6 2.5-6 6.2 0 1.6.6 3.2 1.6 4.3L24 36.6C22.4 34.6 22 32.6 22 29.9 22 21.8 26.9 20 32 20Zm0 24c-4.1 0-7.4-1.9-9.9-5.1l4.6-4.6c.9 1.9 2.8 3.2 5.3 3.2 3.6 0 6-2.5 6-6.2 0-1.6-.6-3.2-1.6-4.3L40 27.4c1.6 2 2 4 2 6.7 0 8.1-4.9 9.9-10 9.9Z"/>
</svg>
